<?xml version="1.0" standalone="no"?><!DOCTYPE svg PUBLIC "-//W3C//DTD SVG 1.1//EN" "http://www.w3.org/Graphics/SVG/1.1/DTD/svg11.dtd"><svg t="1597489997432" class="icon" viewBox="0 0 1024 1024" version="1.1" xmlns="http://www.w3.org/2000/svg" p-id="4647" data-spm-anchor-id="a313x.7781069.0.i4" xmlns:xlink="http://www.w3.org/1999/xlink" width="200" height="200"><defs><style type="text/css"></style></defs><path d="M904.533333 853.333333V341.333333a68.266667 68.266667 0 0 0-68.266666-68.266666h-102.4a34.133333 34.133333 0 0 1-34.133334-34.133334V136.533333a68.266667 68.266667 0 0 0-68.266666-68.266666H187.733333a68.266667 68.266667 0 0 0-68.266666 68.266666v716.8a34.133333 34.133333 0 0 1-34.133334 34.133334H34.133333a34.133333 34.133333 0 1 0 0 68.266666h955.733334a34.133333 34.133333 0 1 0 0-68.266666h-51.2a34.133333 34.133333 0 0 1-34.133334-34.133334zM324.7104 682.581333h-34.133333a34.133333 34.133333 0 0 1-34.133334-34.133333v-34.133333a34.133333 34.133333 0 0 1 34.133334-34.133334h34.133333a34.133333 34.133333 0 0 1 34.133333 34.133334v34.133333a34.133333 34.133333 0 0 1-34.133333 34.133333z m0-204.8h-34.133333a34.133333 34.133333 0 0 1-34.133334-34.133333v-34.133333a34.133333 34.133333 0 0 1 34.133334-34.133334h34.133333a34.133333 34.133333 0 0 1 34.133333 34.133334v34.133333a34.133333 34.133333 0 0 1-34.133333 34.133333z m0-204.8h-34.133333a34.133333 34.133333 0 0 1-34.133334-34.133333v-34.133333a34.133333 34.133333 0 0 1 34.133334-34.133334h34.133333a34.133333 34.133333 0 0 1 34.133333 34.133334v34.133333a34.133333 34.133333 0 0 1-34.133333 34.133333z m204.8 409.6h-34.133333a34.133333 34.133333 0 0 1-34.133334-34.133333v-34.133333a34.133333 34.133333 0 0 1 34.133334-34.133334h34.133333a34.133333 34.133333 0 0 1 34.133333 34.133334v34.133333a34.133333 34.133333 0 0 1-34.133333 34.133333z m0-204.8h-34.133333a34.133333 34.133333 0 0 1-34.133334-34.133333v-34.133333a34.133333 34.133333 0 0 1 34.133334-34.133334h34.133333a34.133333 34.133333 0 0 1 34.133333 34.133334v34.133333a34.133333 34.133333 0 0 1-34.133333 34.133333z m0-204.8h-34.133333a34.133333 34.133333 0 0 1-34.133334-34.133333v-34.133333a34.133333 34.133333 0 0 1 34.133334-34.133334h34.133333a34.133333 34.133333 0 0 1 34.133333 34.133334v34.133333a34.133333 34.133333 0 0 1-34.133333 34.133333z m238.404267 614.4h-68.266667a34.133333 34.133333 0 0 1-34.133333-34.133333v-136.533333a34.133333 34.133333 0 0 1 34.133333-34.133334h68.266667a34.133333 34.133333 0 0 1 34.133333 34.133334v136.533333a34.133333 34.133333 0 0 1-34.133333 34.133333z" fill="#B2B2B2" p-id="4648"></path></svg>