<?xml version="1.0" standalone="no"?><!DOCTYPE svg PUBLIC "-//W3C//DTD SVG 1.1//EN" "http://www.w3.org/Graphics/SVG/1.1/DTD/svg11.dtd"><svg t="1597587353635" class="icon" viewBox="0 0 1024 1024" version="1.1" xmlns="http://www.w3.org/2000/svg" p-id="2243" xmlns:xlink="http://www.w3.org/1999/xlink" width="200" height="200"><defs><style type="text/css"></style></defs><path d="M272 563.2c-3.2 0-6.4 0-9.6-3.2-6.4-6.4-6.4-16 0-22.4l70.4-80c6.4-6.4 16-6.4 22.4-3.2 6.4 6.4 6.4 16 3.2 22.4L288 556.8c-6.4 3.2-9.6 6.4-16 6.4z" fill="#F8AC59" p-id="2244"></path><path d="M272 563.2c-3.2 0-6.4 0-9.6-3.2l-54.4-44.8c-6.4-6.4-6.4-16-3.2-22.4 6.4-6.4 16-6.4 22.4-3.2l54.4 44.8c6.4 6.4 6.4 16 3.2 22.4-3.2 3.2-6.4 6.4-12.8 6.4zM518.4 563.2c-3.2 0-6.4 0-9.6-3.2-6.4-6.4-6.4-16-3.2-22.4l70.4-80c6.4-6.4 16-6.4 22.4-3.2 6.4 6.4 6.4 16 3.2 22.4l-70.4 80c-3.2 3.2-6.4 6.4-12.8 6.4z" fill="#F8AC59" p-id="2245"></path><path d="M518.4 563.2c-3.2 0-6.4 0-9.6-3.2l-54.4-44.8c-6.4-6.4-6.4-16-3.2-22.4 6.4-6.4 16-6.4 22.4-3.2l54.4 44.8c6.4 6.4 6.4 16 3.2 22.4-3.2 3.2-6.4 6.4-12.8 6.4zM272 752c-3.2 0-6.4 0-9.6-3.2-6.4-6.4-6.4-16 0-25.6l70.4-80c6.4-6.4 16-6.4 22.4-3.2s6.4 16 3.2 22.4L288 742.4c-6.4 6.4-9.6 9.6-16 9.6z" fill="#F8AC59" p-id="2246"></path><path d="M272 752c-3.2 0-6.4 0-9.6-3.2L211.2 704c-6.4-6.4-6.4-16-3.2-22.4 6.4-6.4 16-9.6 22.4-3.2l54.4 44.8c6.4 6.4 6.4 16 3.2 22.4-6.4 3.2-9.6 6.4-16 6.4z" fill="#F8AC59" p-id="2247"></path><path d="M508.8 928H185.6c-70.4 0-128-57.6-128-128V249.6c0-70.4 57.6-128 128-128H800c70.4 0 128 57.6 128 128v259.2c0 19.2-12.8 32-32 32s-32-12.8-32-32V249.6c0-35.2-28.8-64-64-64H185.6c-35.2 0-64 28.8-64 64V800c0 35.2 28.8 64 64 64h323.2c19.2 0 32 12.8 32 32s-16 32-32 32z" fill="#33CC99" p-id="2248" data-spm-anchor-id="a313x.7781069.0.i3" class="selected"></path><path d="M896 390.4H96c-9.6 0-16-6.4-16-16s6.4-16 16-16h800c9.6 0 16 6.4 16 16s-6.4 16-16 16z" fill="#19AA8D" p-id="2249"></path><path d="M249.6 236.8c-9.6 0-16-6.4-16-16V86.4c0-9.6 6.4-16 16-16s16 6.4 16 16V224c0 6.4-6.4 12.8-16 12.8zM489.6 236.8c-9.6 0-16-6.4-16-16V86.4c0-9.6 6.4-16 16-16s16 6.4 16 16V224c0 6.4-6.4 12.8-16 12.8zM729.6 236.8c-9.6 0-16-6.4-16-16V86.4c0-9.6 6.4-16 16-16s16 6.4 16 16V224c0 6.4-6.4 12.8-16 12.8z" fill="#F8AC59" p-id="2250"></path><path d="M803.2 601.6c-6.4 0-12.8-6.4-12.8-12.8 0-12.8-9.6-22.4-22.4-22.4-12.8 0-22.4 9.6-22.4 22.4 0 6.4-6.4 12.8-12.8 12.8s-12.8-6.4-12.8-12.8c0-25.6 19.2-44.8 44.8-44.8s44.8 19.2 44.8 44.8c6.4 6.4 0 12.8-6.4 12.8zM774.4 924.8c-38.4 0-70.4-32-70.4-70.4 0-6.4 6.4-12.8 12.8-12.8s12.8 6.4 12.8 12.8c0 25.6 19.2 44.8 44.8 44.8s44.8-22.4 44.8-44.8c0-6.4 6.4-12.8 12.8-12.8s12.8 6.4 12.8 12.8c0 38.4-32 70.4-70.4 70.4z" fill="#19AA8D" p-id="2251"></path><path d="M931.2 870.4h-316.8c-9.6 0-22.4-6.4-25.6-16-3.2-9.6-3.2-22.4 6.4-28.8l51.2-57.6v-57.6c0-35.2 16-70.4 41.6-92.8 25.6-25.6 60.8-35.2 99.2-32 64 6.4 115.2 64 115.2 131.2V768l51.2 57.6c6.4 9.6 9.6 19.2 6.4 28.8-9.6 9.6-19.2 16-28.8 16z m-3.2-25.6z m-307.2-6.4h300.8l-51.2-54.4c-3.2-3.2-3.2-6.4-3.2-12.8v-57.6c0-51.2-38.4-96-86.4-102.4-25.6-3.2-54.4 6.4-73.6 25.6-19.2 19.2-32 44.8-32 70.4v64c0 3.2-3.2 9.6-6.4 12.8l-48 54.4z" fill="#33CC99" p-id="2252" data-spm-anchor-id="a313x.7781069.0.i5" class="selected"></path><path d="M844.8 771.2c-3.2 0-3.2 0 0 0-6.4 0-9.6-3.2-6.4-9.6 6.4-86.4-16-99.2-19.2-99.2-3.2-3.2-6.4-6.4-3.2-9.6 3.2-3.2 6.4-6.4 9.6-3.2 3.2 3.2 32 19.2 25.6 115.2 0 0-3.2 6.4-6.4 6.4z" fill="#19AA8D" p-id="2253"></path></svg>