<?xml version="1.0" standalone="no"?><!DOCTYPE svg PUBLIC "-//W3C//DTD SVG 1.1//EN" "http://www.w3.org/Graphics/SVG/1.1/DTD/svg11.dtd"><svg t="1597587507261" class="icon" viewBox="0 0 1024 1024" version="1.1" xmlns="http://www.w3.org/2000/svg" p-id="5567" data-spm-anchor-id="a313x.7781069.0.i15" xmlns:xlink="http://www.w3.org/1999/xlink" width="200" height="200"><defs><style type="text/css"></style></defs><path d="M750.885204 589.786621 719.170898 589.786621 719.170898 692.87858 616.083032 692.87858 616.083032 724.593909 719.170898 724.593909 719.170898 827.674613 750.885204 827.674613 750.885204 724.593909 853.974094 724.593909 853.974094 692.87858 750.885204 692.87858Z" p-id="5568"></path><path d="M529.52463 471.243761 529.52463 180.964538c0-15.08865-12.271488-27.363208-27.356045-27.363208-15.086603 0-27.360138 12.275581-27.360138 27.363208l0 262.920108L265.166777 443.884646c-15.077394 0-27.343765 12.273535-27.343765 27.360138 0 15.089673 12.266371 27.365254 27.343765 27.365254l237.001809 0C517.253142 498.606968 529.52463 486.330364 529.52463 471.243761z" p-id="5569" data-spm-anchor-id="a313x.7781069.0.i17" class="selected" fill="#33CC99"></path><path d="M698.59528 305.122279 736.471936 267.154549 698.59528 229.188866 660.714532 267.154549Z" p-id="5570" data-spm-anchor-id="a313x.7781069.0.i21" class="selected" fill="#33CC99"></path><path d="M484.384547 838.33337l-0.271176-0.518816-0.584308-0.029676c-195.700147-9.769504-348.998579-171.046654-348.998579-367.164311 0-202.703655 164.92012-367.614565 367.634008-367.614565 199.050452 0 363.938849 161.848155 367.564423 360.786043l0.011256 0.585331 0.509606 0.287549c18.4717 10.425444 35.778878 22.973224 51.440579 37.291324l1.559519 1.426489 0.150426-2.108011c0.734734-10.1952 1.106194-20.507056 1.106194-30.650067 0-57.016575-11.166317-112.327298-33.189913-164.396187-21.271466-50.29243-51.724035-95.459119-90.51041-134.245494-38.786375-38.786375-83.954087-69.237921-134.245494-90.509387-52.069913-22.022573-107.380636-33.189913-164.396187-33.189913-57.015551 0-112.325251 11.166317-164.394141 33.189913-50.291406 21.271466-95.459119 51.724035-134.245494 90.51041-38.786375 38.786375-69.237921 83.953064-90.509387 134.245494-22.022573 52.068889-33.189913 107.379613-33.189913 164.395164 0 57.015551 11.166317 112.325251 33.189913 164.393117 21.271466 50.291406 51.723012 95.458095 90.509387 134.24447 38.786375 38.786375 83.953064 69.237921 134.245494 90.509387 52.068889 22.022573 107.378589 33.189913 164.394141 33.189913 5.696746 0 11.452843-0.11461 17.107633-0.342808l2.111081-0.084934-1.375324-1.603521C506.194272 874.821399 494.208287 857.125365 484.384547 838.33337z" p-id="5571" data-spm-anchor-id="a313x.7781069.0.i16" class="selected" fill="#33CC99"></path><path d="M901.381823 540.108175c-45.046962-45.046962-104.933911-69.855998-168.631652-69.855998-63.699788 0-123.587759 24.808012-168.634722 69.852928-45.046962 45.045939-69.854974 104.934934-69.854974 168.635745 0 63.692624 24.808012 123.57855 69.853951 168.623465 45.046962 45.046962 104.936981 69.857021 168.635745 69.857021 63.696718 0 123.58469-24.809035 168.631652-69.855998 45.045939-45.046962 69.852928-104.931864 69.852928-168.624489C971.234751 645.043109 946.427762 585.154114 901.381823 540.108175zM732.750171 891.768373c-100.927667 0-183.03878-82.105996-183.03878-183.027523s82.111113-183.027523 183.03878-183.027523c100.919481 0 183.02343 82.105996 183.02343 183.027523S833.669652 891.768373 732.750171 891.768373z" p-id="5572" data-spm-anchor-id="a313x.7781069.0.i13" class="selected" fill="#33CC99"></path><path d="M337.519642 268.458241 298.835597 229.779314 260.142343 268.458241 298.835597 307.156612Z" p-id="5573" data-spm-anchor-id="a313x.7781069.0.i20" class="selected" fill="#33CC99"></path><path d="M294.582737 688.502923 332.459393 650.530077 294.582737 612.537787 256.706081 650.530077Z" p-id="5574" data-spm-anchor-id="a313x.7781069.0.i19" class="selected" fill="#33CC99"></path><path d="M762.122129 588.196403 709.426977 588.196403 709.426977 680.189583 612.727611 680.189583 612.727611 732.88269 709.426977 732.88269 709.426977 837.357136 762.122129 837.357136 762.122129 732.88269 854.999446 732.88269 854.999446 680.189583 762.122129 680.189583Z" p-id="5575" data-spm-anchor-id="a313x.7781069.0.i18" class="selected" fill="#33CC99"></path></svg>