<?xml version="1.0" standalone="no"?><!DOCTYPE svg PUBLIC "-//W3C//DTD SVG 1.1//EN" "http://www.w3.org/Graphics/SVG/1.1/DTD/svg11.dtd"><svg t="1597587442349" class="icon" viewBox="0 0 1024 1024" version="1.1" xmlns="http://www.w3.org/2000/svg" p-id="4145" xmlns:xlink="http://www.w3.org/1999/xlink" width="200" height="200"><defs><style type="text/css"></style></defs><path d="M661.333333 832l40.533333 0L701.866667 488.533333l-29.866667 0c-2.133333 12.8-6.4 23.466667-12.8 32-6.4 8.533333-12.8 14.933333-21.333333 19.2-8.533333 4.266667-19.2 8.533333-29.866667 10.666667-10.666667 2.133333-21.333333 2.133333-32 2.133333l0 32 85.333333 0L661.333333 832zM896 128l-85.333333 0L810.666667 64c0-12.8-8.533333-21.333333-21.333333-21.333333s-21.333333 8.533333-21.333333 21.333333l0 64L256 128 256 64c0-12.8-8.533333-21.333333-21.333333-21.333333-12.8 0-21.333333 8.533333-21.333333 21.333333l0 64L128 128c-46.933333 0-85.333333 38.4-85.333333 85.333333l0 128 0 42.666667 0 512c0 46.933333 38.4 85.333333 85.333333 85.333333l768 0c46.933333 0 85.333333-38.4 85.333333-85.333333L981.333333 384l0-42.666667 0-128C981.333333 166.4 942.933333 128 896 128zM938.666667 896c0 23.466667-19.2 42.666667-42.666667 42.666667L128 938.666667c-23.466667 0-42.666667-19.2-42.666667-42.666667L85.333333 384l853.333333 0L938.666667 896zM938.666667 341.333333 85.333333 341.333333l0-128c0-23.466667 19.2-42.666667 42.666667-42.666667l85.333333 0 0 64c0 12.8 8.533333 21.333333 21.333333 21.333333 12.8 0 21.333333-8.533333 21.333333-21.333333L256 170.666667l512 0 0 64c0 12.8 8.533333 21.333333 21.333333 21.333333s21.333333-8.533333 21.333333-21.333333L810.666667 170.666667l85.333333 0c23.466667 0 42.666667 19.2 42.666667 42.666667L938.666667 341.333333zM458.666667 782.933333c-6.4 6.4-14.933333 10.666667-23.466667 12.8-8.533333 2.133333-17.066667 4.266667-27.733333 4.266667-23.466667 0-40.533333-6.4-51.2-21.333333-12.8-14.933333-19.2-32-19.2-53.333333l-40.533333 0c0 17.066667 2.133333 34.133333 6.4 46.933333s12.8 25.6 21.333333 34.133333c10.666667 8.533333 21.333333 17.066667 36.266667 21.333333 12.8 4.266667 29.866667 6.4 46.933333 6.4 14.933333 0 29.866667-2.133333 44.8-6.4s25.6-10.666667 36.266667-19.2c10.666667-8.533333 19.2-19.2 25.6-32 6.4-12.8 8.533333-27.733333 8.533333-44.8 0-21.333333-4.266667-38.4-14.933333-53.333333-10.666667-14.933333-25.6-25.6-44.8-29.866667l0 0c12.8-6.4 23.466667-14.933333 32-27.733333 8.533333-12.8 12.8-25.6 12.8-40.533333 0-14.933333-2.133333-29.866667-8.533333-40.533333-4.266667-10.666667-12.8-21.333333-21.333333-27.733333-8.533333-6.4-19.2-12.8-32-17.066667-12.8-4.266667-25.6-6.4-40.533333-6.4-17.066667 0-32 2.133333-44.8 8.533333-12.8 6.4-23.466667 12.8-32 23.466667s-14.933333 21.333333-19.2 34.133333c-4.266667 12.8-6.4 27.733333-8.533333 44.8l40.533333 0c0-10.666667 2.133333-19.2 4.266667-27.733333 2.133333-8.533333 6.4-17.066667 10.666667-23.466667 4.266667-6.4 10.666667-12.8 19.2-17.066667 8.533333-4.266667 17.066667-6.4 27.733333-6.4 17.066667 0 32 4.266667 42.666667 12.8 10.666667 8.533333 17.066667 23.466667 17.066667 40.533333 0 8.533333-2.133333 17.066667-4.266667 23.466667-4.266667 6.4-8.533333 12.8-12.8 17.066667s-12.8 8.533333-19.2 10.666667c-8.533333 2.133333-14.933333 4.266667-23.466667 4.266667l-8.533333 0c-2.133333 0-2.133333 0-4.266667 0-2.133333 0-2.133333 0-4.266667 0l0 34.133333c8.533333 0 14.933333-2.133333 23.466667-2.133333 10.666667 0 19.2 2.133333 27.733333 4.266667 8.533333 2.133333 17.066667 6.4 21.333333 12.8 6.4 6.4 10.666667 12.8 14.933333 21.333333 4.266667 8.533333 6.4 17.066667 6.4 27.733333 0 10.666667-2.133333 19.2-6.4 27.733333C471.466667 770.133333 465.066667 778.666667 458.666667 782.933333z" p-id="4146" fill="#33CC99"></path></svg>