<?xml version="1.0" standalone="no"?><!DOCTYPE svg PUBLIC "-//W3C//DTD SVG 1.1//EN" "http://www.w3.org/Graphics/SVG/1.1/DTD/svg11.dtd"><svg t="1597488173247" class="icon" viewBox="0 0 1024 1024" version="1.1" xmlns="http://www.w3.org/2000/svg" p-id="2248" xmlns:xlink="http://www.w3.org/1999/xlink" width="200" height="200"><defs><style type="text/css"></style></defs><path d="M512 220.064V183.392c0-12.928-3.136-23.36-16-23.36s-16 10.432-16 23.36v36.8C288 232.96 153.12 386.656 153.12 573.664c0 195.36 157.28 354.304 350.848 354.304 193.536 0 344.192-158.944 344.192-354.304C848.16 385.664 704 231.456 512 220.064z m-8.256 661.12c-168.032 0-304.704-137.984-304.704-307.52 0-169.536 136.704-307.488 304.704-307.488s304.704 137.984 304.704 307.488c0 169.536-136.672 307.52-304.704 307.52z" p-id="2249" data-spm-anchor-id="a313x.7781069.0.i1" fill="#B2B2B2" class="selected"></path><path d="M802.816 342.176a22.88 22.88 0 0 0 16.384 6.848 23.2 23.2 0 0 0 16.448-6.912 23.52 23.52 0 0 0-0.064-33.056l-60.16-60.608a22.944 22.944 0 0 0-32.736 0.064 23.52 23.52 0 0 0 0.064 33.056l60.064 60.608M525.536 569.312v-187.04a23.264 23.264 0 1 0-46.464 0v197.088c0 6.464 3.296 12.608 7.968 16.96l67.84 64a22.976 22.976 0 0 0 15.936 6.368 22.4 22.4 0 0 0 16.544-7.36 23.552 23.552 0 0 0-1.28-33.056l-60.544-56.96M525.536 569.312z" p-id="2250" fill="#B2B2B2"></path></svg>