<?xml version="1.0" standalone="no"?><!DOCTYPE svg PUBLIC "-//W3C//DTD SVG 1.1//EN" "http://www.w3.org/Graphics/SVG/1.1/DTD/svg11.dtd"><svg t="1597283931198" class="icon" viewBox="0 0 1024 1024" version="1.1" xmlns="http://www.w3.org/2000/svg" p-id="2130" xmlns:xlink="http://www.w3.org/1999/xlink" width="200" height="200"><defs><style type="text/css"></style></defs><path d="M424.533333 189.866667l-134.4 96c-17.066667 12.8-36.266667 21.333333-55.466666 25.6l-49.066667 12.8c-2.133333 0-4.266667 0-4.266667 2.133333-49.066667 21.333333-83.2 74.666667-83.2 134.4v140.8c0 59.733333 32 110.933333 83.2 134.4 2.133333 0 2.133333 2.133333 4.266667 2.133333l36.266667 8.533334c29.866667 8.533333 57.6 21.333333 83.2 40.533333L426.666667 874.666667c27.733333 19.2 57.6 29.866667 89.6 29.866666 25.6 0 53.333333-6.4 74.666666-21.333333 42.666667-27.733333 68.266667-72.533333 68.266667-119.466667V300.8c0-34.133333-12.8-66.133333-36.266667-91.733333-51.2-55.466667-136.533333-64-198.4-19.2z m168.533334 571.733333c0 25.6-14.933333 49.066667-38.4 66.133333-27.733333 17.066667-61.866667 14.933333-91.733334-6.4L341.333333 733.866667c-32-23.466667-68.266667-40.533333-104.533333-49.066667l-34.133333-8.533333c-25.6-12.8-42.666667-42.666667-42.666667-74.666667v-140.8c0-32 17.066667-61.866667 42.666667-74.666667l46.933333-12.8c27.733333-6.4 53.333333-19.2 76.8-36.266666l134.4-96c36.266667-25.6 85.333333-21.333333 113.066667 8.533333 8.533333 10.666667 19.2 27.733333 19.2 49.066667v462.933333zM889.6 401.066667L866.133333 320c-4.266667-17.066667-23.466667-25.6-40.533333-21.333333s-25.6 23.466667-21.333333 40.533333l23.466666 81.066667c23.466667 81.066667 23.466667 166.4 0 245.333333L804.266667 746.666667c-4.266667 17.066667 4.266667 34.133333 21.333333 40.533333 2.133333 0 6.4 2.133333 8.533333 2.133333 12.8 0 25.6-8.533333 29.866667-23.466666l23.466667-81.066667c29.866667-93.866667 29.866667-192 2.133333-283.733333z" p-id="2131" data-spm-anchor-id="a313x.7781069.0.i1" fill="#B2B2B2" class="selected"></path></svg>